<?xml version="1.0" standalone="no"?>
<!DOCTYPE svg PUBLIC "-//W3C//DTD SVG 20010904//EN"
 "http://www.w3.org/TR/2001/REC-SVG-20010904/DTD/svg10.dtd">
<svg version="1.0" xmlns="http://www.w3.org/2000/svg"
 width="16.000000pt" height="16.000000pt" viewBox="0 0 16.000000 16.000000"
 preserveAspectRatio="xMidYMid meet">
<metadata>
Created by potrace 1.11, written by Peter Selinger 2001-2013
</metadata>
<g transform="translate(0.000000,16.000000) scale(0.013333,-0.013333)"
fill="#000000" stroke="none">
<path d="M495 1185 c-236 -50 -423 -220 -478 -435 -20 -77 -21 -205 -2 -286
39 -169 160 -319 316 -393 46 -22 116 -47 154 -55 92 -19 307 -15 390 8 112
31 248 110 302 177 l23 27 -47 35 -47 35 -53 -47 c-104 -93 -248 -143 -397
-140 -313 7 -545 237 -523 518 10 125 50 211 137 299 203 204 567 209 784 11
l55 -50 45 33 c25 18 45 35 46 38 0 11 -86 93 -128 122 -64 44 -160 85 -238
101 -85 18 -259 19 -339 2z"/>
<path d="M517 884 c-31 -10 -66 -32 -97 -63 -52 -49 -64 -85 -32 -95 18 -6
146 -32 200 -41 45 -7 332 -91 383 -112 40 -15 43 -15 55 2 26 35 -10 116 -81
187 -112 111 -295 163 -428 122z"/>
<path d="M347 642 c-13 -3 -17 -14 -17 -50 1 -118 100 -217 250 -251 72 -16
217 -7 279 17 66 26 117 60 132 90 15 27 5 41 -37 48 -27 4 -103 18 -164 30
-72 14 -276 68 -346 92 -44 15 -87 26 -97 24z"/>
</g>
</svg>
