<svg id="レイヤー_1" data-name="レイヤー 1" xmlns="http://www.w3.org/2000/svg" viewBox="0 0 53.32 38.69"><defs><style>.cls-1,.cls-2{fill:#040000;}.cls-1{stroke:#000;stroke-miterlimit:10;stroke-width:0.25px;}</style></defs><title>arrow</title><path class="cls-1" d="M33.82,0A19.25,19.25,0,0,0,14.59,19.23a9.06,9.06,0,0,0,.08,1.48h.5c0-.49-.07-1-.07-1.48a18.73,18.73,0,0,1,37.46,0,9.38,9.38,0,0,1-.07,1.4l.28.13-.22.45v.5h-.17a18.71,18.71,0,0,1-37.09,0h-.5A19.22,19.22,0,1,0,33.82,0Z" transform="translate(0.13 0.13)"/><path class="cls-1" d="M33.82,37.46a18.24,18.24,0,0,1-18-15.75h-.51a18.71,18.71,0,0,0,37.09,0h-.51A18.24,18.24,0,0,1,33.82,37.46Z" transform="translate(0.13 0.13)"/><path class="cls-1" d="M15.59,19.23a18.23,18.23,0,1,1,36.46,0h0A7.45,7.45,0,0,1,52,20.39l.49.23c0-.46.07-.92.07-1.4a18.73,18.73,0,0,0-37.46,0,10.34,10.34,0,0,0,.07,1.48h.5C15.63,20.22,15.59,19.73,15.59,19.23Z" transform="translate(0.13 0.13)"/><path class="cls-1" d="M0,20.71v1H14.77c0-.33-.08-.66-.1-1Z" transform="translate(0.13 0.13)"/><path class="cls-1" d="M51.9,21.46l-1.56-.75H15.66a8.27,8.27,0,0,0,.11,1H51.86C51.87,21.63,51.89,21.54,51.9,21.46Z" transform="translate(0.13 0.13)"/><path class="cls-2" d="M52.37,21.71h.17v-.5l-.14.3Z" transform="translate(0.13 0.13)"/><path class="cls-1" d="M15.16,20.71h-.5a8.26,8.26,0,0,0,.1,1h.5C15.23,21.38,15.19,21,15.16,20.71Z" transform="translate(0.13 0.13)"/><path class="cls-1" d="M15.78,21.71c0-.33-.09-.66-.11-1h-.5a6.65,6.65,0,0,0,.11,1Z" transform="translate(0.13 0.13)"/><path class="cls-2" d="M52.32,21.66l-.42-.2v.25h.51v-.2Z" transform="translate(0.13 0.13)"/><path class="cls-1" d="M33.6,12.68l16.74,8H52v-.32L34,11.78Z" transform="translate(0.13 0.13)"/><path class="cls-2" d="M52.54,20.71v.5l.22-.45-.28-.13v.08Z" transform="translate(0.13 0.13)"/><path class="cls-2" d="M52,20.71h.5v-.08l-.5-.24Z" transform="translate(0.13 0.13)"/><path class="cls-2" d="M51.9,21.46a6.36,6.36,0,0,1,.08-.75H50.34Z" transform="translate(0.13 0.13)"/><path class="cls-2" d="M52.48,20.71a2.72,2.72,0,0,1-.08.8l.14-.3v-.5Z" transform="translate(0.13 0.13)"/><path class="cls-2" d="M52.32,21.66l.07-.15c0-.26.06-.53.08-.8H52a2.4,2.4,0,0,1-.08.75Z" transform="translate(0.13 0.13)"/></svg>