<svg id="_2" data-name="2" xmlns="http://www.w3.org/2000/svg" viewBox="0 0 454.52 513"><defs><style>.cls-1{fill:none;stroke:#2b1607;stroke-miterlimit:10;}</style></defs><title>coffee_bean</title><path class="cls-1" d="M282.22,116.62a756.06,756.06,0,0,1,43.43-81.88l0-.08A22.71,22.71,0,0,0,307.56.24C211.61-5.29,99.4,86,51.66,198.56,3.79,311.43,36.45,408.66,113,460.94a22.68,22.68,0,0,0,34.41-12.09c6.13-19.78,12.58-39.92,18.43-57.68,16.46-44.56,31.78-89,50.35-132.75C236.57,210.24,259.59,163.74,282.22,116.62Z" transform="translate(-28.74 0.5)"/><path class="cls-1" d="M418.61,47.46A22.71,22.71,0,0,0,381.41,58c-.35,1.25-.61,2.17-.74,2.67A756,756,0,0,1,352,148.82c-18.14,49-35.57,97.9-56,146.08-18.57,43.78-39.84,85.67-60.43,128.47-8.39,16-18,33.87-27.6,51.42a22.68,22.68,0,0,0,15.26,33.12c90.69,18.52,183.16-25.61,231-138.38S489.53,112.47,418.61,47.46Z" transform="translate(-28.74 0.5)"/></svg>