<svg id="レイヤー_1" data-name="レイヤー 1" xmlns="http://www.w3.org/2000/svg" viewBox="0 0 447.91 267.02"><defs><style>.cls-1{fill:#fff;}</style></defs><title>shibucafe_logo1</title><path class="cls-1" d="M289.35,290.55c6.56,1.8,13,4,19.41,6.06a98.28,98.28,0,0,1,11.3,4.18h0a3,3,0,0,0,4.12-2.93c-1-12.46-14.65-25.33-30-29.53s-27.33,1.68-32.74,12.44a3,3,0,0,0,2.15,4.22c2.65.45,5.36.93,7.75,1.37C277.4,287.71,283.38,288.92,289.35,290.55Z" transform="translate(-226.04 -91.49)"/><path class="cls-1" d="M279.16,323.15c15.35,4.2,33.73.09,40.87-10.17a3,3,0,0,0-2-4.61l-.36,0a98.28,98.28,0,0,1-11.85-2.17c-6.63-1.49-13.23-2.89-19.79-4.68-6-1.63-11.73-3.65-17.6-5.56-2.2-.8-4.68-1.73-7.1-2.66a3,3,0,0,0-4,2.54C256.51,307.79,263.8,318.94,279.16,323.15Z" transform="translate(-226.04 -91.49)"/><path class="cls-1" d="M339.74,260.86l-9.17,7a50.14,50.14,0,0,0-18.22-15,53.32,53.32,0,0,0-23.36-5.1,51.64,51.64,0,0,0-25.78,6.68,48,48,0,0,0-18.38,17.95,49.65,49.65,0,0,0-6.52,25.34q0,21.27,14.59,35.5t36.8,14.23q24.43,0,40.88-19.13l9.17,7A58.61,58.61,0,0,1,318,352.46a68.09,68.09,0,0,1-29.06,6q-30.52,0-48.15-20.32Q226,321,226,296.76q0-25.54,17.91-43t44.87-17.43a65.84,65.84,0,0,1,29.41,6.44A57.09,57.09,0,0,1,339.74,260.86Z" transform="translate(-226.04 -91.49)"/><path class="cls-1" d="M418.07,239.28l54.24,116.3H459.76l-18.29-38.27h-50.1l-18.12,38.27h-13l55-116.3ZM416.6,264l-19.93,42.1h39.76Z" transform="translate(-226.04 -91.49)"/><path class="cls-1" d="M507.82,239.28h58.27v11.39H519.45v36.45h46.65V298.5H519.45v57.08H507.82Z" transform="translate(-226.04 -91.49)"/><path class="cls-1" d="M606.79,239.28h66.65v11.39h-55v36.45H673V298.5H618.41v45.7H673v11.39H606.79Z" transform="translate(-226.04 -91.49)"/><path class="cls-1" d="M226,189.06l9.88-5.93q10.44,19.21,24.11,19.21a23.1,23.1,0,0,0,11-2.73,19.3,19.3,0,0,0,7.83-7.31,18.94,18.94,0,0,0,2.69-9.72,19.72,19.72,0,0,0-4-11.46q-5.46-7.75-19.92-18.66t-18.11-15.89a29.06,29.06,0,0,1-6.17-17.79A27,27,0,0,1,237,104.93a25.93,25.93,0,0,1,10.24-9.84,29.5,29.5,0,0,1,14.35-3.6A30.59,30.59,0,0,1,277,95.56q7.16,4.07,15.14,15l-9.49,7.19q-6.56-8.7-11.19-11.46a19.28,19.28,0,0,0-10.08-2.77,16,16,0,0,0-11.5,4.27,14,14,0,0,0-4.47,10.52,17.9,17.9,0,0,0,1.58,7.35,27.11,27.11,0,0,0,5.77,7.75q2.29,2.21,15,11.62,15.1,11.15,20.71,19.85t5.61,17.47q0,12.65-9.61,22a32.29,32.29,0,0,1-23.36,9.33A34.27,34.27,0,0,1,241.93,208Q233.32,202.34,226,189.06Z" transform="translate(-226.04 -91.49)"/><path class="cls-1" d="M318.55,94.42h11.62V143.2h59.22V94.42H401v116.3H389.39V154.59H330.17v56.14H318.55Z" transform="translate(-226.04 -91.49)"/><path class="cls-1" d="M427.66,94.42h11.62v116.3H427.66Z" transform="translate(-226.04 -91.49)"/><path class="cls-1" d="M466.24,94.42h22.93q13.83,0,21.27,3.28a26.05,26.05,0,0,1,11.74,10.08,27.63,27.63,0,0,1,4.31,15.1A27.14,27.14,0,0,1,522.71,137a28,28,0,0,1-11.09,10.32q9.07,3.08,14,7.23a28.92,28.92,0,0,1,7.61,10,30.09,30.09,0,0,1,2.72,12.77A31.35,31.35,0,0,1,525.66,201q-10.24,9.69-27.48,9.69H466.24Zm11.39,11.39V143h6.65q12.12,0,17.83-2.25a19.22,19.22,0,0,0,9-7.12,18.68,18.68,0,0,0,3.33-10.79q0-8-5.59-12.53T491.1,105.8Zm0,48.94v44.59H492q12.75,0,18.69-2.49a21.24,21.24,0,0,0,9.54-7.79,20.33,20.33,0,0,0-1.46-25q-5.07-5.77-13.93-7.91-5.94-1.42-20.68-1.42Z" transform="translate(-226.04 -91.49)"/><path class="cls-1" d="M673.66,130.06c-.34-5.13-1.79-10.42-5.38-14.1-3.27-3.35-7.9-4.93-12.6-5.49-.91-.11-1.83-.18-2.73-.22l-1.44-.05c-5-.15-10.12,0-15.2.17V94.42H624.69v70.21q0,13.76-1.19,18.18c-.1.36-.22.69-.33,1a27.33,27.33,0,0,1-4.89,9.48,24.63,24.63,0,0,1-8.86,6.8,26.07,26.07,0,0,1-11.07,2.45,30.47,30.47,0,0,1-13.2-3.12,23.76,23.76,0,0,1-9.72-7.75,25.83,25.83,0,0,1-4-11.5q-.47-3.08-.47-15.58V94.42H559.3v70.21q0,17.71,2.13,24.51a32.36,32.36,0,0,0,13.44,17.79q10,6.72,24.11,6.72,13,0,22.1-7.12t12.18-16.72a53.27,53.27,0,0,0,1.47-6h20.92a17.84,17.84,0,0,0,17.78-17.78C673.44,154.17,674.44,141.91,673.66,130.06ZM662.3,159.86a11.23,11.23,0,0,1-11.2,11.2H637.92a64.72,64.72,0,0,0,1-12.1v-34H651.1a11.23,11.23,0,0,1,11.2,11.2Z" transform="translate(-226.04 -91.49)"/></svg>