<svg id="レイヤー_1" data-name="レイヤー 1" xmlns="http://www.w3.org/2000/svg" viewBox="0 0 630.29 84.57"><defs><style>.cls-1{fill:#fff;}</style></defs><title>shibucafe_logo2</title><path class="cls-1" d="M533.29,243.49c4.52,1.24,8.92,2.72,13.37,4.17a67.67,67.67,0,0,1,7.78,2.88h0a2,2,0,0,0,2.84-2c-.65-8.58-10.09-17.44-20.64-20.33s-18.82,1.16-22.54,8.57a2,2,0,0,0,1.48,2.91c1.83.31,3.69.64,5.34.95C525.06,241.54,529.19,242.37,533.29,243.49Z" transform="translate(-134.86 -205.72)"/><path class="cls-1" d="M526.28,265.94c10.57,2.9,23.22.07,28.14-7a2,2,0,0,0-1.38-3.17l-.25,0a67.67,67.67,0,0,1-8.16-1.49c-4.57-1-9.11-2-13.63-3.22-4.11-1.12-8.07-2.51-12.12-3.83-1.52-.55-3.22-1.19-4.89-1.83a2,2,0,0,0-2.76,1.75C510.69,255.37,515.7,263,526.28,265.94Z" transform="translate(-134.86 -205.72)"/><path class="cls-1" d="M568,223.05l-6.31,4.85a34.53,34.53,0,0,0-12.55-10.32A36.72,36.72,0,0,0,533,214.07a35.55,35.55,0,0,0-17.75,4.6A33,33,0,0,0,502.63,231a34.18,34.18,0,0,0-4.49,17.45q0,14.64,10,24.44t25.34,9.8q16.82,0,28.15-13.17l6.31,4.79A40.36,40.36,0,0,1,553,286.12a46.88,46.88,0,0,1-20,4.16q-21,0-33.15-14-10.18-11.81-10.18-28.53A39.66,39.66,0,0,1,502,218.18q12.33-12,30.89-12a45.34,45.34,0,0,1,20.25,4.44A39.31,39.31,0,0,1,568,223.05Z" transform="translate(-134.86 -205.72)"/><path class="cls-1" d="M615.78,210.19l37.35,80.08h-8.64l-12.6-26.35h-34.5l-12.48,26.35H576l37.84-80.08Zm-1,17-13.72,29h27.38Z" transform="translate(-134.86 -205.72)"/><path class="cls-1" d="M665.13,210.19h40.12V218H673.13v25.1h32.12V251H673.13v39.31h-8Z" transform="translate(-134.86 -205.72)"/><path class="cls-1" d="M719.25,210.19h45.89V218H727.25v25.1h37.56V251H727.25v31.47h37.56v7.84H719.25Z" transform="translate(-134.86 -205.72)"/><path class="cls-1" d="M134.86,272.89l6.8-4.08Q148.85,282,158.27,282a15.9,15.9,0,0,0,7.57-1.88,13.29,13.29,0,0,0,5.39-5,13,13,0,0,0,1.85-6.7,13.58,13.58,0,0,0-2.72-7.89q-3.76-5.34-13.72-12.85t-12.47-10.94a20,20,0,0,1-4.25-12.25,18.59,18.59,0,0,1,2.5-9.53,17.85,17.85,0,0,1,7-6.78,20.32,20.32,0,0,1,9.88-2.48,21.06,21.06,0,0,1,10.59,2.8q4.93,2.8,10.43,10.32l-6.53,5q-4.52-6-7.7-7.89a13.27,13.27,0,0,0-6.94-1.91,11,11,0,0,0-7.92,2.94,9.62,9.62,0,0,0-3.08,7.24,12.33,12.33,0,0,0,1.09,5.06,18.67,18.67,0,0,0,4,5.34q1.58,1.52,10.34,8,10.4,7.68,14.26,13.66a22,22,0,0,1,3.87,12,20.42,20.42,0,0,1-6.61,15.13A22.23,22.23,0,0,1,159,289.82a23.6,23.6,0,0,1-13.23-3.89Q139.87,282,134.86,272.89Z" transform="translate(-134.86 -205.72)"/><path class="cls-1" d="M198.55,209.73h8v33.59h40.77V209.73h8v80.08h-8V251.16H206.55v38.65h-8Z" transform="translate(-134.86 -205.72)"/><path class="cls-1" d="M273.68,209.73h8v80.08h-8Z" transform="translate(-134.86 -205.72)"/><path class="cls-1" d="M300.24,209.73H316q9.53,0,14.64,2.26a17.94,17.94,0,0,1,8.08,6.94,19,19,0,0,1,3,10.4,18.68,18.68,0,0,1-2.6,9.72,19.26,19.26,0,0,1-7.64,7.1,29.57,29.57,0,0,1,9.61,5,19.91,19.91,0,0,1,5.24,6.91,20.72,20.72,0,0,1,1.87,8.79,21.58,21.58,0,0,1-7,16.3q-7.05,6.67-18.92,6.67h-22Zm7.84,7.84v25.64h4.58q8.35,0,12.28-1.55a13.23,13.23,0,0,0,6.22-4.9,12.86,12.86,0,0,0,2.29-7.43,10.52,10.52,0,0,0-3.85-8.63q-3.85-3.13-12.25-3.13Zm0,33.7V282H318q8.78,0,12.87-1.71a14.62,14.62,0,0,0,6.57-5.36,14,14,0,0,0-1-17.2,17.93,17.93,0,0,0-9.59-5.44q-4.09-1-14.24-1Z" transform="translate(-134.86 -205.72)"/><path class="cls-1" d="M443.06,232.27c-.23-3.53-1.23-7.18-3.71-9.71a14.32,14.32,0,0,0-8.68-3.78c-.63-.08-1.26-.13-1.88-.15l-1,0c-3.47-.11-7,0-10.46.12v-10h-8v47.34q0,9.47-.82,12.52c-.07.25-.15.47-.23.71a18.82,18.82,0,0,1-3.37,6.53,17,17,0,0,1-6.1,4.68,18,18,0,0,1-7.62,1.69,21,21,0,0,1-9.09-2.15,16.36,16.36,0,0,1-6.7-5.34,17.78,17.78,0,0,1-2.78-7.92,100,100,0,0,1-.33-10.72V207.73h-8v48.34q0,12.19,1.47,16.88A22.28,22.28,0,0,0,375,285.2a29.15,29.15,0,0,0,16.6,4.63,24,24,0,0,0,15.22-4.9,23.58,23.58,0,0,0,8.38-11.51,36.67,36.67,0,0,0,1-4.11h14.4a12.28,12.28,0,0,0,12.24-12.24C442.91,248.87,443.59,240.43,443.06,232.27Zm-7.82,20.52a7.73,7.73,0,0,1-7.71,7.71h-9.07a44.56,44.56,0,0,0,.68-8.33V228.75h8.39a7.73,7.73,0,0,1,7.71,7.71Z" transform="translate(-134.86 -205.72)"/></svg>