<svg id="_2" data-name="2" xmlns="http://www.w3.org/2000/svg" viewBox="0 0 439.14 512"><defs><style>.cls-1{fill:#2b2b2b;}</style></defs><title>banana</title><path class="cls-1" d="M470.19,207.83c-12-65.12-53.26-101.58-73.32-117.11L397.22,62h28.1l.22-19.06.27-23.4L426,0H299.23V62H328l-.37,30,0,1.51.22,1.5c.61,4.21,1.08,8.28,1.61,12.41a191.5,191.5,0,0,1-7.39,35.87c-23.45,20.74-50.73,37.42-78.89,49.82-33.64,14.83-68.44,23.61-98.82,26.42-12.95,1.2-25.29,1.63-36.25,1.63-13.16,0-24.32-.62-32.15-1.22-3.92-.31-7-.62-9.09-.84l-2.36-.27-.58-.07-.16,0v.07a22.17,22.17,0,0,0-25.69,13.9v0a24,24,0,0,0-1.63,8.84c.09,7.56,2.8,13.79,5.46,20l0,.09,0,.09c.54,1.17,5.8,11.69,21.29,23.56s41,25,81.7,32c2.71.46,9,1.7,16.9,2.79l3.34.42a441,441,0,0,1-53.87,15.64c-7.65,1.7-13.9,2.88-18.22,3.63-2.16.37-3.83.64-5,.81l-1.26.19-.38.06v0a23.66,23.66,0,0,0-21.91,21v0a23.43,23.43,0,0,0-.14,2.55,29.21,29.21,0,0,0,4.07,14.24,78.57,78.57,0,0,0,8,11.23l.06.08.07.08c.74.88,7.34,8.25,22.21,15.34s37.92,13.85,71.27,13.83c8.43,0,17.52-.43,27.31-1.38,13.14-1.31,28.43-1.79,44.88-5.08,2.46-.49,5-1.07,7.46-1.71a405,405,0,0,1-35.54,33.85A33.5,33.5,0,0,0,203,486.25c6.74,14.56,22,20,30.16,22.94l.19.07.2.06c1.87.63,8.87,2.67,20.53,2.67,22.3,0,58.82-7.37,106.12-42.53C455.13,398.93,490.08,315.79,470.19,207.83ZM164.52,301c-7.37-1-13.15-2.15-16.28-2.7C110.19,291.73,87.81,279.79,75,270a70.52,70.52,0,0,1-12.78-12.35,35.42,35.42,0,0,1-2.38-3.41l-.4-.7c-2.48-5.48-3.82-9.87-3.72-12a4.62,4.62,0,0,1,.28-1.75,3.6,3.6,0,0,1,3.31-2.27l.85.11.51.13.52.07a386,386,0,0,0,46.91,2.6c11.46,0,24.38-.45,38-1.71,32.67-3,69.26-12.32,104.82-28a339.51,339.51,0,0,0,57-31.93,313.83,313.83,0,0,1-40.79,62.31A340,340,0,0,1,216.09,291c-5.69,4.46-11.3,8.46-16.75,12.06l-.07-.65c-3.24.32-6.66.46-10.12.46A182.16,182.16,0,0,1,164.52,301Zm74,92.89c-14.5,2.92-28.93,3.43-43,4.79-9.19.9-17.66,1.29-25.43,1.29-30.77,0-50.79-6.16-63-12a67.7,67.7,0,0,1-12.76-7.73A34.65,34.65,0,0,1,91.78,378l-.44-.44a60.61,60.61,0,0,1-5.93-8.25,10.39,10.39,0,0,1-1.64-4.86l0-.46a4.44,4.44,0,0,1,4.27-4h.52l.52-.07a444.21,444.21,0,0,0,87.24-23h0l1.25-.47-1.24.46c15.68-5.94,33.35-16.53,51.56-30.75a363.59,363.59,0,0,0,78.3-85.52,296.39,296.39,0,0,0,28.18-54.24c3,87.44-15.77,156.1-57.48,212.21A108.48,108.48,0,0,1,238.54,393.89ZM348.72,454c-44.34,33-77.11,38.72-94.61,38.72-9.42,0-14.41-1.67-14.41-1.67-8.88-3.18-16.19-6.47-19.15-12.85a14.07,14.07,0,0,1,5.2-17.76,435.36,435.36,0,0,0,61.38-63.12c1.19-1.5,2.28-3.08,3.44-4.6,1.07-.73,2.15-1.42,3.22-2.21l-.77-1.05c49.35-66.65,72.05-153.25,55.83-282.28.07-.74.21-1.46.27-2.19l-.56,0c-.54-4.23-1-8.36-1.63-12.69l.61-49.57h-29V19.28h88l-.27,23.4H378.17l-.7,57.56c13.77,10.38,61.24,43.12,73.76,111.08C466.22,292.74,452.17,377.11,348.72,454Z" transform="translate(-36.43)"/><path class="cls-1" d="M394.2,177.63a358.76,358.76,0,0,1,6.56,67.07c0,56.79-14.77,134.41-84.75,193.43l4.14,4.91c71.9-60.61,87.06-140.55,87-198.34a364.72,364.72,0,0,0-6.68-68.25Z" transform="translate(-36.43)"/></svg>