<svg id="_2" data-name="2" xmlns="http://www.w3.org/2000/svg" viewBox="0 0 512 399.81"><defs><style>.cls-1{fill:#2b2b2b;}</style></defs><title>cake</title><path class="cls-1" d="M489.78,246.27C477.2,229.93,460,215.59,439.43,203.4v-8.85l-.49-1.72c-15.86-56.83-42.53-91-65.72-110.55s-42.54-24.68-44-25l-4.55-1.14L96,164.43a55,55,0,0,0-31.06,43.67c-18.82,12.17-34.43,26.28-45.72,42.21C7.06,267.45,0,286.93,0,307.42c0,21.8,8,42.42,21.61,60.39,20.49,27,53.29,48.7,93.74,64S204.11,455.9,256,455.9c69.19,0,132-15.57,178.37-41.49,23.2-13,42.38-28.61,56-46.61S512,329.22,512,307.42C512,285.29,503.76,264.4,489.78,246.27ZM90.66,240H413.28v31.39H90.66Zm0,48.83H413.28v29.78a4.23,4.23,0,0,1-4.22,4.22H94.88a4.23,4.23,0,0,1-4.22-4.22Zm380.43,64.43c-16.54,22-45.59,41.9-83,56s-83,22.53-132.09,22.52c-65.52,0-124.71-15-166.57-38.41C68.5,381.61,52,367.84,40.9,353.21s-16.69-29.94-16.72-45.79c0-14.91,5-29.27,14.79-43.15,6.42-9.09,15.13-17.83,25.53-26v80.32a30.39,30.39,0,0,0,30.38,30.38H409.05a30.39,30.39,0,0,0,30.38-30.38V232.15c12.79,8.92,23.34,18.67,31.17,28.86,11.39,14.87,17.19,30.33,17.21,46.41C487.79,323.28,482.16,338.53,471.09,353.21Z" transform="translate(0 -56.09)"/></svg>