<svg id="_2" data-name="2" xmlns="http://www.w3.org/2000/svg" viewBox="0 0 512 354.78"><defs><style>.cls-1{fill:#2b2b2b;}</style></defs><title>coffee</title><path class="cls-1" d="M0,366.06c0,37.18,34.81,67.33,77.74,67.33H407.27c42.94,0,77.74-30.15,77.74-67.33v-.86H0Z" transform="translate(0 -78.61)"/><path class="cls-1" d="M488.28,114.82A80.87,80.87,0,0,0,431,91.1H414.76V78.61H67.34V194a189.11,189.11,0,0,0,64.78,142.66H350a189.76,189.76,0,0,0,56.53-87.42,81,81,0,0,0,81.78-134.44Zm-30.73,83.79a37.42,37.42,0,0,1-43.18,7.08c.23-3.87.38-7.75.38-11.68V134.56H431a37.53,37.53,0,0,1,26.54,64.06Z" transform="translate(0 -78.61)"/></svg>