<svg id="_2" data-name="2" xmlns="http://www.w3.org/2000/svg" viewBox="0 0 512 511.93"><defs><style>.cls-1{fill:#2b2b2b;}</style></defs><title>orange</title><path class="cls-1" d="M458.06,99a258.7,258.7,0,0,0-45-45.06A254.92,254.92,0,0,0,256,0C114.85,0,0,114.82,0,256A254.56,254.56,0,0,0,34.2,383.69a258.08,258.08,0,0,0,94.08,94.08A254.53,254.53,0,0,0,256,512c141.19,0,256-114.85,256-256A254.39,254.39,0,0,0,458.06,99ZM256,467c-116.55,0-211-94.5-211-211.05S139.44,44.94,256,44.94,467.06,139.43,467.06,256,372.57,467,256,467Z" transform="translate(0 -0.04)"/><path class="cls-1" d="M235.85,295.59a4,4,0,0,0-4.33.86l-80.39,80.38a15.89,15.89,0,0,0-4.57,12.75c.46,4.72,3.11,8,6.93,11.63a98.71,98.71,0,0,0,30.19,20.32,98.53,98.53,0,0,0,35.71,7c4.94,0,9.47-.3,13.13-3.32a15.86,15.86,0,0,0,5.79-12.25V299.26A4,4,0,0,0,235.85,295.59Z" transform="translate(0 -0.04)"/><path class="cls-1" d="M276.16,216.38a4,4,0,0,0,4.32-.85l80.39-80.39a15.93,15.93,0,0,0,4.58-12.74c-.46-4.72-3.12-8-6.95-11.63a91.68,91.68,0,0,0-65.89-27.29c-4.94,0-9.47.31-13.13,3.32A15.87,15.87,0,0,0,273.71,99V212.72A4,4,0,0,0,276.16,216.38Z" transform="translate(0 -0.04)"/><path class="cls-1" d="M216.4,272.6a4,4,0,0,0-3.66-2.44H99a15.81,15.81,0,0,0-12.24,5.77c-3,3.66-3.47,7.87-3.33,13.14A91.67,91.67,0,0,0,110.78,355c3.48,3.49,6.9,6.48,11.63,6.94a15.85,15.85,0,0,0,12.73-4.58l80.41-80.39A4,4,0,0,0,216.4,272.6Z" transform="translate(0 -0.04)"/><path class="cls-1" d="M295.61,242.2a4,4,0,0,0,3.66,2.44H413a15.85,15.85,0,0,0,12.25-5.78c3-3.66,3.46-7.87,3.32-13.14a98.41,98.41,0,0,0-7-35.7,98.36,98.36,0,0,0-20.32-30.18c-3.48-3.5-6.91-6.48-11.63-6.94a15.92,15.92,0,0,0-12.76,4.57l-80.38,80.4A3.93,3.93,0,0,0,295.61,242.2Z" transform="translate(0 -0.04)"/><path class="cls-1" d="M86.81,238.87A15.86,15.86,0,0,0,99,244.65H212.73a4,4,0,0,0,2.8-6.77l-80.39-80.39a15.83,15.83,0,0,0-12.74-4.57c-4.72.45-8,3.11-11.63,6.93A98.3,98.3,0,0,0,90.46,190a98.32,98.32,0,0,0-7,35.7C83.47,230.68,83.79,235.21,86.81,238.87Z" transform="translate(0 -0.04)"/><path class="cls-1" d="M425.2,275.94A15.81,15.81,0,0,0,413,270.16H299.27a4,4,0,0,0-2.8,6.76l80.38,80.39a15.89,15.89,0,0,0,12.75,4.58c4.72-.46,8-3.12,11.64-6.95a91.68,91.68,0,0,0,27.3-65.88C428.53,284.13,428.21,279.59,425.2,275.94Z" transform="translate(0 -0.04)"/><path class="cls-1" d="M231.52,215.51a4,4,0,0,0,6.77-2.8V99a15.85,15.85,0,0,0-5.78-12.25c-3.66-3-7.86-3.46-13.13-3.32a98.44,98.44,0,0,0-35.71,7,98.5,98.5,0,0,0-30.19,20.31c-3.5,3.49-6.47,6.91-6.93,11.64a15.84,15.84,0,0,0,4.57,12.75Z" transform="translate(0 -0.04)"/><path class="cls-1" d="M280.48,296.44a4,4,0,0,0-6.76,2.82V412.95a15.87,15.87,0,0,0,5.78,12.24c3.66,3,7.87,3.47,13.13,3.32a91.67,91.67,0,0,0,65.89-27.29c3.5-3.49,6.48-6.92,6.95-11.64a16,16,0,0,0-4.58-12.75Z" transform="translate(0 -0.04)"/></svg>